# xmcd CD database file
#
# Track frame offsets:
#	150
#	14632
#	26405
#	43000
#	54332
#	75212
#	87105
#	100057
#	116322
#	136567
#	155517
#	168040
#	179480
#	191950
#	208100
#
# Disc length: 2913 seconds
#
# Revision: 0
# Processed by: cddbd v1.5.1PL0 Copyright (c) Steve Scherf et al.
# Submitted via: CDex 1.51
#
DISCID=b20b5f0f
DTITLE=Joyce, Patrick - Melodies Remembered
DYEAR=1994
DGENRE=Jazz
TTITLE0=Here's That Rainy Day
TTITLE1=Cole Porter Medley: What Is This Thing Called Love? - I Love Paris
TTITLE2=All I Ask Of You
TTITLE3=I Love My Baby, My Baby Loves Me
TTITLE4=Hoagy Carmichael Medley: Skylark - Georgia On My Mind
TTITLE5=Love Me Or Leave Me
TTITLE6=Swinging That 'Sting' (based on The Entertainer)
TTITLE7=Summertime
TTITLE8=Boogie Woogie on the St Louis Blues
TTITLE9=St. James Infirmary
TTITLE10=Scotch and Soda
TTITLE11=Yesterdays
TTITLE12='Deed I Do
TTITLE13=Irving Berlin Medley: What'll I Do - Always - How Deep Is The Ocean
TTITLE14=Puttin' On The Ritz
EXTD=YEAR: 1994
EXTT0=
EXTT1=
EXTT2=
EXTT3=
EXTT4=
EXTT5=
EXTT6=
EXTT7=
EXTT8=
EXTT9=
EXTT10=
EXTT11=
EXTT12=
EXTT13=
EXTT14=
PLAYORDER=
